<?xml version="1.0" encoding="UTF-8"?>
<svg width="302px" height="302px" viewBox="0 0 302 302" version="1.1" xmlns="http://www.w3.org/2000/svg" xmlns:xlink="http://www.w3.org/1999/xlink">
    <title>Group 10 Copy</title>
    <g id="Page-1" stroke="none" stroke-width="1" fill="none" fill-rule="evenodd">
        <g id="Group-10-Copy" transform="translate(13.000000, 13.000000)">
            <g id="Group" transform="translate(97.000000, 98.000000)" fill-rule="nonzero">
                <path d="M19.1390476,23.4244389 C23.4571429,23.4244389 26.967619,19.9120579 26.967619,15.5939627 C26.967619,11.2777722 23.4552381,7.767296 19.1390476,7.767296 C14.8228571,7.767296 11.3104762,11.2796769 11.3104762,15.5939627 C11.3104762,19.9120579 14.8228571,23.4244389 19.1390476,23.4244389 Z" id="Shape" fill="#FA759E"></path>
                <path d="M38.3047619,8.79586742 C38.3047619,13.4358674 42.0780952,17.2111055 46.72,17.2111055 C51.36,17.2111055 55.1352381,13.4358674 55.1352381,8.79586742 C55.1352381,4.15586742 51.36,0.380629329 46.72,0.380629329 C42.0780952,0.380629329 38.3047619,4.15586742 38.3047619,8.79586742 Z" id="Shape" fill="#164176"></path>
                <path d="M77.6819048,56.167296 C76.8152381,55.4301531 75.8057143,55.2777722 74.5390476,55.4911055 C74.4628571,54.2606293 74.08,53.1101531 73.367619,52.2244389 C72.3809524,50.9996769 70.8971429,50.3311055 69.1752381,50.3311055 L69.0933333,50.3311055 C68.2590476,50.3425341 67.3390476,50.534915 66.3504762,50.814915 L66.3504762,33.1958674 C66.3504762,28.0053912 62.127619,23.7844389 56.9390476,23.7844389 L36.5047619,23.7844389 C32.64,23.7844389 29.3180952,26.127296 27.8704762,29.4682484 L9.7752381,29.4682484 C4.95428571,29.4682484 1.03238095,33.3901531 1.03238095,38.2111055 C0.946707929,57.4845455 0.946707929,68.6543509 1.03238095,71.7205219 C1.072124,73.1428948 4.21333333,75.8377722 5.30285714,76.1234865 C10.7714286,77.567296 19.8933333,79.4301531 30.5885714,79.4301531 C44.6057143,79.4263436 61.3180952,76.2301531 75.9980952,64.7063436 C76.3295238,64.4796769 79.2304762,62.4225341 79.3714286,59.7025341 C79.4190476,58.7825341 79.1638095,57.4244389 77.6819048,56.167296 Z M69.1257143,53.0987246 L69.1752381,53.0987246 C70.0628571,53.0987246 70.7447619,53.3882484 71.2038095,53.9577722 C71.672381,54.5425341 71.8761905,55.3787246 71.8057143,56.2834865 C70.9047619,56.6263436 69.9009524,57.0453912 68.767619,57.5215817 C65.0838095,59.0663436 59.8438095,61.2644389 52.5180952,63.0606293 C52.672381,62.607296 52.7485714,62.1711055 52.7752381,61.7692008 C52.8609524,60.4892008 52.7352381,59.3577722 52.4190476,58.3692008 C56.6685714,57.3196769 60.1257143,56.0263436 62.927619,54.9463436 C65.5904762,53.9234865 67.6895238,53.1158674 69.1257143,53.0987246 Z M36.5047619,26.5501531 L56.9390476,26.5501531 C60.6019048,26.5501531 63.5809524,29.5292008 63.5809524,33.1939627 L63.5809524,51.7387246 C63.0514286,51.9368198 62.5142857,52.1406293 61.9390476,52.3634865 C60.8495238,52.7806293 59.6209524,53.2377722 58.3238095,53.6987246 L58.3238095,34.5844389 C58.3238095,33.8225341 57.7047619,33.1996769 56.9390476,33.1996769 C56.1733333,33.1996769 55.5542857,33.8206293 55.5542857,34.5844389 L55.5542857,54.614915 C54.1085714,55.0644389 52.5866667,55.5082484 50.9085714,55.894915 C49.007619,54.0720579 46.4285714,54.1844389 46.367619,54.1806293 C42.76,54.2244389 40.0342857,54.1501531 37.8914286,53.9939627 L37.8914286,34.5863436 C37.8914286,33.8244389 37.272381,33.2015817 36.5066667,33.2015817 C35.7409524,33.2015817 35.1219048,33.8225341 35.1219048,34.5863436 L35.1219048,53.7006293 C32.4171429,53.2987246 31.0590476,52.6930103 29.8628562,52.0111055 L29.8628562,33.1939627 C29.8609524,29.5292008 32.84,26.5501531 36.5047619,26.5501531 Z M3.80190476,38.2092008 C3.80190476,34.9139627 6.48190476,32.2339627 9.7752381,32.2339627 L27.1904762,32.2339627 C27.1580952,32.5539627 27.0933333,32.8663436 27.0933333,33.1939627 L27.0933333,50.4815817 C24.6209524,49.3253912 20.64,48.2415817 11.1619048,47.7920579 L11.1619048,39.4853912 C11.1619048,38.7196769 10.5409524,38.1006293 9.77714286,38.1006293 C9.01333333,38.1006293 8.39238095,38.7177722 8.39238095,39.4853912 L8.39238095,47.6853912 C8.00761905,47.6739627 7.64952381,47.654915 7.24952381,47.647296 C5.99428571,47.607296 4.83238095,47.9330103 3.80190476,48.5292008 L3.80190476,38.2092008 Z M74.3638095,62.4720579 C49.3847619,82.0739627 18.2438095,76.6758674 6.00952381,73.4434865 C4.29142857,72.9939627 3.10095238,71.4339627 3.10853507,69.6530103 L3.18285714,54.294915 C3.18857143,53.2377722 3.60952381,52.2492008 4.37142857,51.5120579 C5.1047619,50.8015817 6.06285714,50.4111055 7.07619048,50.4111055 C7.11047619,50.4111055 7.1447619,50.4111055 7.17714286,50.414915 C22.3828571,50.8015817 25.2361905,52.494915 27.7561905,53.9901531 C30.5752381,55.6644389 33.0342857,57.1292008 46.4457143,56.9482484 C46.4647619,56.9444389 48.0342857,56.8968198 49.0609524,57.9482484 C49.8057143,58.7139627 50.127619,59.9387246 50.0171429,61.5825341 C49.9904762,61.9882484 49.9066667,63.2053912 47.4952381,64.1615817 C47.472381,64.1692008 47.4571429,64.1844389 47.4380952,64.1920579 C47.4266667,64.1958674 47.4171429,64.1920579 47.407619,64.1958674 C44.8419048,65.1863436 39.1961905,66.0111055 26.8285714,64.3520579 C26.0838095,64.2434865 25.3733333,64.7806293 25.272381,65.5387246 C25.1695238,66.2930103 25.7028571,66.9939627 26.4609524,67.0930103 C31.2914286,67.7444389 35.472381,68.0682484 38.9828571,68.0682484 C42.9390476,68.0682484 46.0304762,67.647296 48.2552381,66.8263436 C48.2590476,66.8263436 48.2609524,66.8263436 48.2647619,66.8263436 C58.4361905,64.8587246 65.2990476,61.9825341 69.8438095,60.0739627 C72.6571429,58.8987246 75.3066667,57.7863436 75.8895238,58.2815817 C76.5619048,58.8511055 76.6228571,59.2777722 76.607619,59.5539627 C76.5542857,60.6244389 75.12,61.9444389 74.3638095,62.4720579 Z" id="Shape" stroke="#164176" fill="#164176"></path>
            </g>
            <path d="M137.5,219 C182.511207,219 219,182.511207 219,137.5 C219,92.4887929 182.511207,56 137.5,56 C118.866377,56 101.693302,62.2533508 87.9648875,72.7759405 C68.5310714,87.6716207 56,111.122416 56,137.5 C56,182.511207 92.4887929,219 137.5,219 Z" id="Oval" stroke="#E2E2E2" stroke-width="5" opacity="0.598400298"></path>
            <path d="M138,276 C214.215295,276 276,214.215295 276,138 C276,61.7847045 214.215295,0 138,0 C106.448589,0 77.3702537,10.5884959 54.1245948,28.4058869 C21.2182558,53.6280203 0,93.3361155 0,138 C0,214.215295 61.7847045,276 138,276 Z" id="Oval" stroke="#E2E2E2" stroke-width="26" opacity="0.774158296"></path>
        </g>
    </g>
</svg>