<?xml version="1.0" encoding="UTF-8"?>
<svg width="48px" height="46px" viewBox="0 0 48 46" version="1.1" xmlns="http://www.w3.org/2000/svg" xmlns:xlink="http://www.w3.org/1999/xlink">
    <title>Group</title>
    <g id="Page-1" stroke="none" stroke-width="1" fill="none" fill-rule="evenodd">
        <g id="Group" fill="#979797">
            <path d="M23.928,0.15 C11,0.15 0.514,10.638 0.514,23.566 C0.514,33.909 7.264,42.671 16.459,45.831 C17.607,45.975 18.039,45.257 18.039,44.681 L18.039,40.661 C11.574,42.097 10.137,37.501 10.137,37.501 C9.132,34.771 7.551,34.051 7.551,34.051 C5.397,32.616 7.695,32.616 7.695,32.616 C9.993,32.76 11.285,35.058 11.285,35.058 C13.441,38.648 16.745,37.644 18.038,37.068 C18.18,35.488 18.898,34.483 19.473,33.908 C14.303,33.334 8.843,31.323 8.843,22.273 C8.843,19.688 9.705,17.677 11.285,15.953 C10.998,15.378 10.28,12.936 11.573,9.776 C11.573,9.776 13.583,9.202 18.037,12.218 C19.903,11.644 21.914,11.5 23.925,11.5 C25.935,11.5 27.947,11.786 29.815,12.217 C34.268,9.201 36.279,9.775 36.279,9.775 C37.572,12.935 36.709,15.377 36.566,15.952 C38.145857,17.6764354 39.0171796,19.9333036 39.006,22.272 C39.006,31.322 33.548,33.19 28.376,33.764 C29.239,34.482 29.956,35.919 29.956,38.074 L29.956,44.538 C29.956,45.112 30.388,45.83 31.536,45.688 C40.874,42.528 47.482,33.764 47.482,23.422 C47.339,10.637 36.852,0.152 23.924,0.152 L23.928,0.15 Z" id="path20"></path>
        </g>
    </g>
</svg>