<svg height="48" id="Layer_1" viewbox="0 0 48 48" width="48" xmlns="http://www.w3.org/2000/svg">
  <style>
    .Round_x0020_Corners_x0020_2_x0020_pt{fill:#FFF;stroke:#000;stroke-miterlimit:10}.Live_x0020_Reflect_x0020_X{fill:none}.Bevel_x0020_Soft{fill:url(#SVGID_1_)}.Dusk{fill:#FFF}.Foliage_GS{fill:#FD0}.Pompadour_GS{fill:#44ade2}.Pompadour_GS,.st0{fill-rule:evenodd;clip-rule:evenodd}.st0{fill:#191717}
  </style>
  <lineargradient gradientunits="userSpaceOnUse" id="SVGID_1_" x1="-216.625" x2="-215.918" y1="-385.75" y2="-385.043">
    <stop id="stop6" offset="0" stop-color="#dedfe3"></stop>
    <stop id="stop8" offset=".174" stop-color="#d8d9dd"></stop>
    <stop id="stop10" offset=".352" stop-color="#c9cacd"></stop>
    <stop id="stop12" offset=".532" stop-color="#b4b5b8"></stop>
    <stop id="stop14" offset=".714" stop-color="#989a9c"></stop>
    <stop id="stop16" offset=".895" stop-color="#797c7e"></stop>
    <stop id="stop18" offset="1" stop-color="#656b6c"></stop>
  </lineargradient>
  <path class="st0" clip-rule="evenodd" d="M23.928 1.15C11 1.15.514 11.638.514 24.566c0 10.343 6.75 19.105 15.945 22.265 1.148.144 1.58-.574 1.58-1.15v-4.02c-6.465 1.436-7.902-3.16-7.902-3.16-1.005-2.73-2.586-3.45-2.586-3.45-2.154-1.435.144-1.435.144-1.435 2.298.144 3.59 2.442 3.59 2.442 2.156 3.59 5.46 2.586 6.753 2.01.142-1.58.86-2.585 1.435-3.16-5.17-.574-10.63-2.585-10.63-11.635 0-2.585.862-4.596 2.442-6.32-.287-.575-1.005-3.017.288-6.177 0 0 2.01-.574 6.464 2.442 1.866-.574 3.877-.718 5.888-.718 2.01 0 4.022.286 5.89.717 4.453-3.016 6.464-2.442 6.464-2.442 1.293 3.16.43 5.602.287 6.177a9.29 9.29 0 0 1 2.44 6.32c0 9.05-5.458 10.918-10.63 11.492.863.718 1.58 2.155 1.58 4.31v6.464c0 .574.432 1.292 1.58 1.15 9.338-3.16 15.946-11.924 15.946-22.266-.143-12.785-10.63-23.27-23.558-23.27z" fill="#191717" fill-rule="evenodd" id="path20"></path>
</svg>