<?xml version="1.0" encoding="UTF-8"?>
<svg width="48px" height="48px" viewBox="0 0 48 48" version="1.1" xmlns="http://www.w3.org/2000/svg" xmlns:xlink="http://www.w3.org/1999/xlink">
    <title>Group</title>
    <g id="Page-1" stroke="none" stroke-width="1" fill="none" fill-rule="evenodd">
        <g id="Group" fill-rule="nonzero">
            <g id="Dark_Blue" fill="#979797">
                <circle id="Oval" cx="24" cy="24" r="24"></circle>
            </g>
            <g id="Logo__x2014__FIXED" transform="translate(9.000000, 11.000000)" fill="#FFFFFF">
                <path d="M10.0462665,25.32 C21.7520988,25.32 28.1526948,15.6995812 28.1526948,7.36188482 C28.1526948,7.08701571 28.1526948,6.8121466 28.1394977,6.55036649 C29.3800255,5.66031414 30.4621882,4.54774869 31.32,3.27811518 C30.185049,3.77549738 28.9577182,4.11581152 27.6644019,4.27287958 C28.9841124,3.48753927 29.9870924,2.25717277 30.4621882,0.778115183 C29.2348574,1.49801047 27.8755556,2.02157068 26.423874,2.3095288 C25.2625287,1.0791623 23.6128906,0.32 21.778493,0.32 C18.268063,0.32 15.4174883,3.14722513 15.4174883,6.62890052 C15.4174883,7.12628272 15.4702767,7.61057592 15.5890507,8.0686911 C10.2970115,7.80691099 5.61203917,5.29382199 2.47112814,1.47183246 C1.93004683,2.40115183 1.6133163,3.48753927 1.6133163,4.63937173 C1.6133163,6.8252356 2.73507024,8.76240838 4.45069391,9.88806283 C3.40812261,9.86188482 2.43153682,9.5739267 1.57372499,9.10272251 C1.57372499,9.12890052 1.57372499,9.15507853 1.57372499,9.18125654 C1.57372499,12.2440838 3.76444444,14.7833508 6.68100468,15.372356 C6.15312048,15.5163351 5.58564496,15.5948691 5.00497233,15.5948691 C4.59586207,15.5948691 4.19994891,15.5556021 3.80403576,15.4770681 C4.60905917,17.9901571 6.95814389,19.8095288 9.74273308,19.8618848 C7.56521073,21.5503665 4.82021286,22.5582199 1.83766709,22.5582199 C1.32297999,22.5582199 0.821489996,22.5320419 0.32,22.4665969 C3.10458919,24.2728796 6.4566539,25.32 10.0462665,25.32" id="Path"></path>
            </g>
        </g>
    </g>
</svg>