<svg width="28" height="26" viewBox="0 0 28 26" fill="none" xmlns="http://www.w3.org/2000/svg">
<path d="M21.8077 0C23.5128 0 24.9712 0.609375 26.1827 1.82812C27.3942 3.04688 28 4.51389 28 6.22917V13.2708C28 14.9861 27.3942 16.4531 26.1827 17.6719C24.9712 18.8906 23.5128 19.5 21.8077 19.5H16.3053L9.82692 25.6276C9.54647 25.8759 9.23237 26 8.88461 26C8.70513 26 8.53125 25.9661 8.36298 25.8984C8.11619 25.7856 7.91426 25.6163 7.75721 25.3906C7.61138 25.1649 7.53846 24.9167 7.53846 24.6458V19.5H6.19231C4.48718 19.5 3.02885 18.8906 1.81731 17.6719C0.605769 16.4531 0 14.9861 0 13.2708V6.22917C0 4.51389 0.605769 3.04688 1.81731 1.82812C3.02885 0.609375 4.48718 0 6.19231 0H21.8077ZM25.3077 13.2708V6.22917C25.3077 5.25868 24.9655 4.42925 24.2812 3.74089C23.597 3.05252 22.7724 2.70833 21.8077 2.70833H6.19231C5.22756 2.70833 4.40304 3.05252 3.71875 3.74089C3.03446 4.42925 2.69231 5.25868 2.69231 6.22917V13.2708C2.69231 14.2413 3.03446 15.0707 3.71875 15.7591C4.40304 16.4475 5.22756 16.7917 6.19231 16.7917H10.2308V21.6328L15.2284 16.7917H21.8077C22.7724 16.7917 23.597 16.4475 24.2812 15.7591C24.9655 15.0707 25.3077 14.2413 25.3077 13.2708Z" fill="#164176"/>
</svg>
