<svg width="28" height="28" viewBox="0 0 28 28" fill="none" xmlns="http://www.w3.org/2000/svg">
<g id="comment">
<path id="comment_2" d="M21.8077 0C23.5128 0 24.9712 0.65625 26.1827 1.96875C27.3942 3.28125 28 4.86111 28 6.70833V14.2917C28 16.1389 27.3942 17.7188 26.1827 19.0313C24.9712 20.3438 23.5128 21 21.8077 21H16.3053L9.82692 27.599C9.54647 27.8663 9.23237 28 8.88462 28C8.70513 28 8.53125 27.9635 8.36298 27.8906C8.11619 27.7691 7.91426 27.5868 7.75721 27.3438C7.61138 27.1007 7.53846 26.8333 7.53846 26.5417V21H6.19231C4.48718 21 3.02885 20.3438 1.81731 19.0313C0.605769 17.7188 0 16.1389 0 14.2917V6.70833C0 4.86111 0.605769 3.28125 1.81731 1.96875C3.02885 0.65625 4.48718 0 6.19231 0H21.8077ZM25.3077 14.2917V6.70833C25.3077 5.66319 24.9655 4.76997 24.2812 4.02865C23.597 3.28733 22.7724 2.91667 21.8077 2.91667H6.19231C5.22756 2.91667 4.40304 3.28733 3.71875 4.02865C3.03446 4.76997 2.69231 5.66319 2.69231 6.70833V14.2917C2.69231 15.3368 3.03446 16.23 3.71875 16.9714C4.40304 17.7127 5.22756 18.0833 6.19231 18.0833H10.2308V23.2969L15.2284 18.0833H21.8077C22.7724 18.0833 23.597 17.7127 24.2812 16.9714C24.9655 16.23 25.3077 15.3368 25.3077 14.2917Z" fill="#164176"/>
</g>
</svg>
