<svg width="25" height="26" viewBox="0 0 25 26" fill="none" xmlns="http://www.w3.org/2000/svg">
<path d="M23.4069 4.05591L25 3.58702V21.7644L24.0962 22.0144C23.9941 22.0457 23.8766 22.0769 23.7439 22.1082C23.6213 22.1395 23.3456 22.1968 22.9167 22.2801C22.4877 22.3531 22.0537 22.4104 21.6146 22.4521C21.1755 22.4833 20.624 22.4989 19.9602 22.4989C19.2964 22.4885 18.6377 22.4416 17.9841 22.3583C17.1977 22.2541 16.4114 22.0561 15.625 21.7644C14.8386 21.4622 14.2719 21.2121 13.9246 21.0141C13.5774 20.8162 13.0362 20.4775 12.3009 19.9982C12.1681 19.9148 12.066 19.8523 11.9945 19.8106C10.6464 18.9354 9.54351 18.3779 8.68566 18.1383C7.5623 17.8361 6.13766 17.7788 4.41177 17.9663V15.45C6.38276 15.2728 8.01675 15.3666 9.31373 15.7313C9.81413 15.8667 10.3196 16.0543 10.8303 16.294C11.3511 16.5336 11.7596 16.7472 12.0558 16.9348C12.3621 17.1119 12.7757 17.3672 13.2966 17.7006C13.3476 17.7319 13.4855 17.8257 13.7102 17.982C13.9451 18.1278 14.0982 18.2216 14.1697 18.2633C14.2412 18.305 14.3842 18.3935 14.5987 18.529C14.8131 18.654 14.9663 18.7426 15.0582 18.7947C15.1501 18.8468 15.2982 18.925 15.5025 19.0292C15.7169 19.1334 15.8854 19.2115 16.008 19.2636C16.1407 19.3157 16.3092 19.3834 16.5135 19.4668C16.7177 19.5397 16.9067 19.597 17.0803 19.6387C17.2539 19.6804 17.4428 19.7221 17.6471 19.7638C17.8615 19.8054 18.076 19.8419 18.2904 19.8732C19.6385 20.0503 21.058 20.0295 22.549 19.8106V6.75984C21.1295 6.98908 19.6129 6.9995 17.9994 6.7911C17.1518 6.6869 16.3246 6.49414 15.5178 6.2128C14.7212 5.92105 14.1034 5.65534 13.6642 5.41569C13.2251 5.16561 12.6685 4.82697 11.9945 4.39976C11.5145 4.10801 11.152 3.88919 10.9069 3.74331C10.6618 3.59743 10.3248 3.42551 9.89583 3.22753C9.47712 3.02956 9.07373 2.87847 8.68566 2.77427C7.1538 2.35748 5.07557 2.39395 2.45098 2.88368V26H0V0.914337L0.919118 0.679892C1.02124 0.648632 1.22549 0.596533 1.53186 0.523595C1.83824 0.450656 2.30801 0.367298 2.94118 0.27352C3.58456 0.169322 4.23815 0.0911732 4.90196 0.0390742C5.56577 -0.0130247 6.30106 -0.0130247 7.10784 0.0390742C7.92484 0.0807534 8.66013 0.190161 9.31373 0.367298C10.4167 0.669472 11.7341 1.30508 13.2659 2.27412C13.8991 2.67007 14.3944 2.97225 14.7518 3.18064C15.1195 3.37862 15.625 3.59743 16.2684 3.83709C16.922 4.06633 17.5909 4.22262 18.2751 4.30598C20.1542 4.54564 21.8597 4.46228 23.3915 4.05591H23.4069Z" fill="#164176"/>
</svg>
