<svg width="28" height="28" viewBox="0 0 28 28" fill="none" xmlns="http://www.w3.org/2000/svg">
<g id="flag">
<path id="flag_2" d="M26.2157 4.3679L28 3.86294V23.4385L26.9877 23.7078C26.8734 23.7415 26.7418 23.7752 26.5931 23.8088C26.4559 23.8425 26.1471 23.9042 25.6667 23.994C25.1863 24.0725 24.7002 24.1343 24.2083 24.1791C23.7165 24.2128 23.0989 24.2296 22.3554 24.2296C21.6119 24.2184 20.8742 24.1679 20.1422 24.0781C19.2614 23.9659 18.3807 23.7527 17.5 23.4385C16.6193 23.1131 15.9845 22.8438 15.5956 22.6306C15.2067 22.4174 14.6005 22.0527 13.777 21.5365C13.6283 21.4467 13.5139 21.3794 13.4338 21.3345C11.924 20.3919 10.6887 19.7916 9.72794 19.5335C8.46977 19.2081 6.87418 19.1464 4.94118 19.3484V16.6384C7.14869 16.4477 8.97876 16.5486 10.4314 16.9414C10.9918 17.0873 11.558 17.2892 12.1299 17.5473C12.7132 17.8054 13.1708 18.0355 13.5025 18.2375C13.8456 18.4282 14.3088 18.7031 14.8922 19.0622C14.9493 19.0959 15.1038 19.1969 15.3554 19.3652C15.6185 19.5223 15.79 19.6233 15.8701 19.6682C15.9502 19.7131 16.1103 19.8084 16.3505 19.9543C16.5907 20.089 16.7623 20.1844 16.8652 20.2405C16.9681 20.2966 17.134 20.3807 17.3627 20.4929C17.6029 20.6052 17.7917 20.6893 17.9289 20.7454C18.0776 20.8015 18.2663 20.8745 18.4951 20.9642C18.7239 21.0428 18.9355 21.1045 19.1299 21.1494C19.3243 21.1943 19.5359 21.2392 19.7647 21.284C20.0049 21.3289 20.2451 21.3682 20.4853 21.4019C21.9951 21.5926 23.585 21.5702 25.2549 21.3345V7.27983C23.665 7.5267 21.9665 7.53792 20.1593 7.3135C19.21 7.20128 18.2835 6.99369 17.3799 6.69071C16.4877 6.37652 15.7958 6.09037 15.3039 5.83228C14.8121 5.56297 14.1887 5.19828 13.4338 4.7382C12.8962 4.42401 12.4902 4.18836 12.2157 4.03126C11.9412 3.87416 11.5637 3.68901 11.0833 3.4758C10.6144 3.2626 10.1626 3.09989 9.72794 2.98768C8.01226 2.53882 5.68464 2.5781 2.7451 3.1055V28H0V0.984671L1.02941 0.732191C1.14379 0.698527 1.37255 0.642421 1.71569 0.563871C2.05882 0.485322 2.58497 0.395552 3.29412 0.29456C4.01471 0.182346 4.74673 0.0981866 5.4902 0.04208C6.23366 -0.0140267 7.05719 -0.0140267 7.96078 0.04208C8.87582 0.0869652 9.69935 0.204789 10.4314 0.395552C11.6667 0.72097 13.1422 1.40547 14.8578 2.44905C15.567 2.87546 16.1217 3.20088 16.5221 3.42531C16.9338 3.63851 17.5 3.87416 18.2206 4.13225C18.9526 4.37912 19.7018 4.54744 20.4681 4.63721C22.5727 4.8953 24.4828 4.80553 26.1985 4.3679H26.2157Z" fill="#164176"/>
</g>
</svg>
