<svg width="28" height="28" viewBox="0 0 28 28" fill="none" xmlns="http://www.w3.org/2000/svg">
<g id="hand">
<g id="filled hand" clip-path="url(#clip0)">
<g id="Page 1">
<path id="Combined Shape" d="M22.6075 0.491396C22.6638 0.491396 22.7197 0.493924 22.7752 0.498899L22.7751 13.759H25.4545V2.94834L28 2.94837V16.4463C28 18.33 27.587 20.0806 26.7611 21.6981C25.9241 23.3157 24.7403 24.667 23.2095 25.7522C21.6567 26.8475 19.9113 27.5437 17.9731 27.8406C16.0238 28.1374 14.0085 28.0197 11.9271 27.4874C10.7708 27.1905 9.62001 26.7401 8.47469 26.136C7.31838 25.532 6.32175 24.9025 5.48479 24.2473C4.63683 23.5818 3.84942 22.8908 3.1226 22.1742C2.38476 21.4473 1.81761 20.8382 1.42115 20.3468C1.0247 19.8554 0.73287 19.451 0.545655 19.1336C0.193253 18.5501 0.0115455 17.9257 0.00053287 17.2603C-0.0104797 16.5948 0.149202 15.9805 0.479579 15.4175C0.765908 14.9261 1.16236 14.5371 1.66893 14.2504C2.1645 13.9536 2.72064 13.7898 3.33735 13.759C3.67873 13.7385 4.04215 13.7744 4.42758 13.8665C4.80201 13.9587 5.09936 14.0508 5.3196 14.1429C5.52885 14.2351 5.82618 14.3784 6.21163 14.5729C6.55301 14.7367 6.82282 14.8647 7.02103 14.9568C7.21924 15.0387 7.46153 15.1155 7.74789 15.1871C8.02321 15.2486 8.28746 15.2691 8.5408 15.2486C8.87118 15.2281 9.11346 15.0643 9.2676 14.7572C9.4218 14.4501 9.4989 14.102 9.4989 13.713V5.63753e-07L12.1914 0V12.7556H14.8344V0L17.2553 5.63753e-07C17.3316 5.63753e-07 17.4077 0.00465415 17.4833 0.0139162L17.4833 12.7635H20.1627V0.491369L22.6075 0.491396Z" fill="#FA759E"/>
</g>
</g>
</g>
<defs>
<clipPath id="clip0">
<rect width="28" height="28" fill="white"/>
</clipPath>
</defs>
</svg>
