<svg width="26" height="28" viewBox="0 0 26 28" fill="none" xmlns="http://www.w3.org/2000/svg">
<g clip-path="url(#clip0)">
<path d="M20.9926 0.491396C21.0449 0.491396 21.0969 0.493924 21.1484 0.498899L21.1483 13.759H23.6364V2.94834L26 2.94837V16.4463C26 18.33 25.6165 20.0806 24.8496 21.6981C24.0724 23.3157 22.9731 24.667 21.5517 25.7522C20.1098 26.8475 18.489 27.5437 16.6893 27.8406C14.8793 28.1374 13.0079 28.0197 11.0752 27.4874C10.0015 27.1905 8.93287 26.7401 7.86935 26.136C6.79564 25.532 5.8702 24.9025 5.09302 24.2473C4.30562 23.5818 3.57447 22.8908 2.89955 22.1742C2.21442 21.4473 1.68778 20.8382 1.31964 20.3468C0.951507 19.8554 0.680523 19.451 0.50668 19.1336C0.179449 18.5501 0.0107208 17.9257 0.000494808 17.2603C-0.00973118 16.5948 0.138545 15.9805 0.445324 15.4175C0.7112 14.9261 1.07934 14.5371 1.54972 14.2504C2.00989 13.9536 2.5263 13.7898 3.09896 13.759C3.41597 13.7385 3.75342 13.7744 4.11133 13.8665C4.45901 13.9587 4.73512 14.0508 4.93963 14.1429C5.13393 14.2351 5.41003 14.3784 5.76794 14.5729C6.08494 14.7367 6.33548 14.8647 6.51953 14.9568C6.70358 15.0387 6.92857 15.1155 7.19447 15.1871C7.45012 15.2486 7.6955 15.2691 7.93075 15.2486C8.23752 15.2281 8.4625 15.0643 8.60563 14.7572C8.74881 14.4501 8.82041 14.102 8.82041 13.713V5.63753e-07L11.3206 0V12.7556H13.7748V0L16.0228 5.63753e-07C16.0936 5.63753e-07 16.1643 0.00465415 16.2345 0.0139162L16.2344 12.7635H18.7225V0.491369L20.9926 0.491396Z" fill="#FA759E"/>
</g>
<defs>
<clipPath id="clip0">
<rect width="26" height="28" fill="white"/>
</clipPath>
</defs>
</svg>
