<?xml version="1.0" encoding="UTF-8"?>
<svg width="138px" height="49px" viewBox="0 0 138 49" version="1.1" xmlns="http://www.w3.org/2000/svg" xmlns:xlink="http://www.w3.org/1999/xlink">
    <title>More Human Internet</title>
    <g stroke="none" stroke-width="1" fill="none" fill-rule="evenodd">
        <g id="Group-5-Copy-2" fill-rule="nonzero">
            <g transform="translate(60.480000, 0.000000)">
                <path d="M3.10077437,14.5063755 L3.10077437,3.14836171 L3.14055129,3.14836171 L5.66638544,14.5063755 L7.89389273,14.5063755 L10.4197269,3.14836171 L10.4595038,3.14836171 L10.4595038,14.5063755 L13.0847802,14.5063755 L13.0847802,0.278968759 L8.84853871,0.278968759 L6.80002754,10.3218441 L6.76025063,10.3218441 L4.73162792,0.278968759 L0.475497931,0.278968759 L0.475497931,14.5063755 L3.10077437,14.5063755 Z M19.6678598,14.7255652 C20.7418365,14.7255652 21.5970402,14.5528703 22.2334709,14.2074804 C22.8699015,13.8620905 23.3571687,13.363932 23.6952725,12.7130049 C24.0333763,12.0620778 24.2521493,11.2849505 24.3515916,10.3816231 C24.4510339,9.4782957 24.5007551,8.4819787 24.5007551,7.39267212 C24.5007551,6.31664976 24.4510339,5.32365382 24.3515916,4.4136843 C24.2521493,3.50371477 24.0333763,2.72326646 23.6952725,2.07233935 C23.3571687,1.42141225 22.8699015,0.913290581 22.2334709,0.547974348 C21.5970402,0.182658116 20.7418365,2.01794137e-13 19.6678598,2.01794137e-13 C18.5938831,2.01794137e-13 17.7386794,0.182658116 17.1022487,0.547974348 C16.4658181,0.913290581 15.9785509,1.42141225 15.6404471,2.07233935 C15.3023433,2.72326646 15.0835703,3.50371477 14.984128,4.4136843 C14.8846857,5.32365382 14.8349645,6.31664976 14.8349645,7.39267212 C14.8349645,8.4819787 14.8846857,9.4782957 14.984128,10.3816231 C15.0835703,11.2849505 15.3023433,12.0620778 15.6404471,12.7130049 C15.9785509,13.363932 16.4658181,13.8620905 17.1022487,14.2074804 C17.7386794,14.5528703 18.5938831,14.7255652 19.6678598,14.7255652 Z M19.6678598,12.6731522 C19.2435727,12.6731522 18.9021542,12.5768416 18.6436042,12.3842203 C18.3850543,12.191599 18.1861697,11.8860618 18.0469505,11.4676086 C17.9077313,11.0491555 17.8149185,10.5045022 17.7685121,9.83364876 C17.7221057,9.16279532 17.6989025,8.34913644 17.6989025,7.39267212 C17.6989025,6.4362078 17.7221057,5.62586998 17.7685121,4.96165865 C17.8149185,4.29744731 17.9077313,3.75279402 18.0469505,3.32769877 C18.1861697,2.90260352 18.3850543,2.59374525 18.6436042,2.40112396 C18.9021542,2.20850268 19.2435727,2.11219203 19.6678598,2.11219203 C20.0921469,2.11219203 20.4335654,2.20850268 20.6921154,2.40112396 C20.9506653,2.59374525 21.1495499,2.90260352 21.2887691,3.32769877 C21.4279883,3.75279402 21.5208011,4.29744731 21.5672075,4.96165865 C21.6136139,5.62586998 21.6368171,6.4362078 21.6368171,7.39267212 C21.6368171,8.34913644 21.6136139,9.16279532 21.5672075,9.83364876 C21.5208011,10.5045022 21.4279883,11.0491555 21.2887691,11.4676086 C21.1495499,11.8860618 20.9506653,12.191599 20.6921154,12.3842203 C20.4335654,12.5768416 20.0921469,12.6731522 19.6678598,12.6731522 Z M29.0552119,14.5063755 L29.0552119,8.48862082 L30.5866232,8.48862082 C31.1832769,8.48862082 31.607564,8.64803153 31.8594845,8.96685297 C32.111405,9.28567441 32.2506242,9.72405389 32.2771421,10.2819914 L32.3566959,13.0119 C32.3699549,13.2908687 32.3964729,13.5598743 32.4362498,13.8189168 C32.4760267,14.0779592 32.5688395,14.3071121 32.7146882,14.5063755 L35.8172876,14.5063755 L35.8172876,14.3868174 C35.5521082,14.2406909 35.3797415,13.9683643 35.3001877,13.5698375 C35.2471518,13.1713107 35.2073749,12.5934468 35.180857,11.8362459 C35.167598,11.4510034 35.154339,11.1022924 35.14108,10.7901131 C35.1278211,10.4779338 35.1079326,10.1890018 35.0814147,9.92331729 C35.0018608,9.12626369 34.7963468,8.54839984 34.4648725,8.18972572 C34.1333982,7.8310516 33.6096688,7.59857763 32.8936843,7.49230382 L32.8936843,7.45245114 C33.7024816,7.27975619 34.2991353,6.89119256 34.6836455,6.28676025 C35.0681557,5.68232794 35.2604108,4.90187963 35.2604108,3.94541531 C35.2604108,2.70998223 34.9289365,1.79004954 34.2659879,1.18561723 C33.6030393,0.581184915 32.6749113,0.278968759 31.4816038,0.278968759 L26.191274,0.278968759 L26.191274,14.5063755 L29.0552119,14.5063755 Z M30.2485194,6.49598682 L29.0552119,6.49598682 L29.0552119,2.39116079 L30.4076271,2.39116079 C31.7335243,2.39116079 32.3964729,3.04873001 32.3964729,4.36386845 C32.3964729,5.13435359 32.2108472,5.68232794 31.839596,6.00779149 C31.4683448,6.33325505 30.9379859,6.49598682 30.2485194,6.49598682 Z M45.3836359,14.5063755 L45.3836359,12.1550674 L40.1131945,12.1550674 L40.1131945,8.3292101 L44.8864244,8.3292101 L44.8864244,5.97790198 L40.1131945,5.97790198 L40.1131945,2.63027687 L45.1847513,2.63027687 L45.1847513,0.278968759 L37.2492566,0.278968759 L37.2492566,14.5063755 L45.3836359,14.5063755 Z" id="MORE" fill="#FFFFFF"></path>
                <path d="M3.344424,31.3417744 L3.344424,25.1330989 L6.6915044,25.1330989 L6.6915044,31.3417744 L9.56043047,31.3417744 L9.56043047,17.3575652 L6.6915044,17.3575652 L6.6915044,22.7044687 L3.344424,22.7044687 L3.344424,17.3575652 L0.475497931,17.3575652 L0.475497931,31.3417744 L3.344424,31.3417744 Z M15.9158986,31.5572174 C16.5003095,31.5572174 17.0647973,31.4984602 17.6093619,31.3809458 C18.1539266,31.2634315 18.638722,31.0349313 19.0637481,30.6954454 C19.4887741,30.3559595 19.8274668,29.8956949 20.079826,29.3146516 C20.3321853,28.7336084 20.4583649,27.9991436 20.4583649,27.1112573 L20.4583649,17.3575652 L17.5894388,17.3575652 L17.5894388,27.1112573 C17.5894388,27.4638004 17.5661952,27.7869649 17.519708,28.0807508 C17.4732208,28.3745367 17.3868873,28.6291512 17.2607077,28.8445942 C17.1345281,29.0600372 16.9651818,29.2297801 16.7526687,29.3538231 C16.5401557,29.477866 16.2612323,29.5398875 15.9158986,29.5398875 C15.583847,29.5398875 15.3082441,29.477866 15.0890901,29.3538231 C14.869936,29.2297801 14.6972692,29.0600372 14.5710895,28.8445942 C14.4449099,28.6291512 14.3585765,28.3745367 14.3120893,28.0807508 C14.265602,27.7869649 14.2423584,27.4638004 14.2423584,27.1112573 L14.2423584,17.3575652 L11.3734324,17.3575652 L11.3734324,27.1112573 C11.3734324,28.0513722 11.499612,28.8152156 11.7519712,29.4027874 C12.0043304,29.9903592 12.3430231,30.4440952 12.7680492,30.7639954 C13.1930753,31.0838957 13.6778707,31.2960744 14.2224353,31.4005316 C14.767,31.5049888 15.3314878,31.5572174 15.9158986,31.5572174 Z M24.960985,31.3417744 L24.960985,20.1779099 L25.0008312,20.1779099 L27.5310646,31.3417744 L29.7624515,31.3417744 L32.2926849,20.1779099 L32.3325311,20.1779099 L32.3325311,31.3417744 L34.96238,31.3417744 L34.96238,17.3575652 L30.7187602,17.3575652 L28.6666811,27.2287717 L28.6268349,27.2287717 L26.594679,17.3575652 L22.3311361,17.3575652 L22.3311361,31.3417744 L24.960985,31.3417744 Z M39.0067688,31.3417744 L39.664231,28.3843296 L43.4496196,28.3843296 L44.1070818,31.3417744 L47.0955465,31.3417744 L43.330081,17.3575652 L39.7837696,17.3575652 L36.0183042,31.3417744 L39.0067688,31.3417744 Z M42.9515422,26.0732138 L40.1623085,26.0732138 L41.5370022,19.7861954 L41.5768484,19.7861954 L42.9515422,26.0732138 Z M50.7215503,31.3417744 L50.7215503,21.5489108 L50.7613964,21.5489108 L54.2678616,31.3417744 L57.5352497,31.3417744 L57.5352497,17.3575652 L54.9054008,17.3575652 L54.9054008,26.9349858 L54.8655546,26.9349858 L51.3989356,17.3575652 L48.0917014,17.3575652 L48.0917014,31.3417744 L50.7215503,31.3417744 Z" id="HUMAN" fill="#FA759E"></path>
                <path d="M3.85557016,48.3888696 L3.85557016,34.1892174 L1.00382897,34.1892174 L1.00382897,48.3888696 L3.85557016,48.3888696 Z M8.5886684,48.3888696 L8.5886684,38.4451355 L8.62827591,38.4451355 L12.1137374,48.3888696 L15.3615537,48.3888696 L15.3615537,34.1892174 L12.7474576,34.1892174 L12.7474576,43.9141893 L12.7078501,43.9141893 L9.26199618,34.1892174 L5.9745723,34.1892174 L5.9745723,48.3888696 L8.5886684,48.3888696 Z M22.5305142,48.3888696 L22.5305142,36.5359386 L25.6199005,36.5359386 L25.6199005,34.1892174 L16.5893868,34.1892174 L16.5893868,36.5359386 L19.678773,36.5359386 L19.678773,48.3888696 L22.5305142,48.3888696 Z M34.9474707,48.3888696 L34.9474707,46.0421483 L29.6994747,46.0421483 L29.6994747,42.2237545 L34.4523767,42.2237545 L34.4523767,39.8770332 L29.6994747,39.8770332 L29.6994747,36.5359386 L34.7494331,36.5359386 L34.7494331,34.1892174 L26.8477336,34.1892174 L26.8477336,48.3888696 L34.9474707,48.3888696 Z M39.2250825,48.3888696 L39.2250825,42.3828542 L40.7499719,42.3828542 C41.3440846,42.3828542 41.7665648,42.541954 42.0174124,42.8601535 C42.26826,43.1783529 42.4068863,43.6158772 42.4332913,44.1727263 L42.5125064,46.8973095 C42.5257089,47.175734 42.5521139,47.4442148 42.5917214,47.7027519 C42.6313289,47.961289 42.7237465,48.1899949 42.868974,48.3888696 L45.9583603,48.3888696 L45.9583603,48.2695448 C45.6943102,48.1237033 45.5226776,47.8519079 45.4434626,47.4541586 C45.3906526,47.0564092 45.3510451,46.4796726 45.3246401,45.7239488 C45.3114375,45.3394578 45.298235,44.9914271 45.2850325,44.6798568 C45.27183,44.3682864 45.2520263,44.0799182 45.2256213,43.8147519 C45.1464062,43.0192532 44.9417674,42.4425166 44.6117048,42.0845422 C44.2816421,41.7265678 43.7601431,41.4945473 43.0472078,41.3884808 L43.0472078,41.3487059 C43.8525607,41.1763478 44.4466734,40.7885422 44.8295461,40.185289 C45.2124188,39.5820358 45.4038551,38.80311 45.4038551,37.8485115 C45.4038551,36.6154885 45.0737924,35.6973504 44.4136672,35.0940972 C43.7535419,34.490844 42.8293665,34.1892174 41.641141,34.1892174 L36.3733413,34.1892174 L36.3733413,48.3888696 L39.2250825,48.3888696 Z M40.413308,40.3941074 L39.2250825,40.3941074 L39.2250825,36.297289 L40.5717381,36.297289 C41.8919886,36.297289 42.5521139,36.9535754 42.5521139,38.2661483 C42.5521139,39.0351304 42.3672788,39.5820358 41.9976087,39.9068645 C41.6279385,40.2316931 41.0998383,40.3941074 40.413308,40.3941074 Z M49.998327,48.3888696 L49.998327,38.4451355 L50.0379345,38.4451355 L53.523396,48.3888696 L56.7712124,48.3888696 L56.7712124,34.1892174 L54.1571163,34.1892174 L54.1571163,43.9141893 L54.1175087,43.9141893 L50.6716548,34.1892174 L47.3842309,34.1892174 L47.3842309,48.3888696 L49.998327,48.3888696 Z M66.8513253,48.3888696 L66.8513253,46.0421483 L61.6033294,46.0421483 L61.6033294,42.2237545 L66.3562314,42.2237545 L66.3562314,39.8770332 L61.6033294,39.8770332 L61.6033294,36.5359386 L66.6532877,36.5359386 L66.6532877,34.1892174 L58.7515882,34.1892174 L58.7515882,48.3888696 L66.8513253,48.3888696 Z M73.4657806,48.3888696 L73.4657806,36.5359386 L76.5551669,36.5359386 L76.5551669,34.1892174 L67.5246531,34.1892174 L67.5246531,36.5359386 L70.6140394,36.5359386 L70.6140394,48.3888696 L73.4657806,48.3888696 Z" id="INTERNET" fill="#FFFFFF"></path>
            </g>
            <g>
                <path d="M11.575296,14.1671006 C14.18688,14.1671006 16.310016,12.0428126 16.310016,9.43122862 C16.310016,6.82079662 14.185728,4.69766062 11.575296,4.69766062 C8.964864,4.69766062 6.840576,6.82194862 6.840576,9.43122862 C6.840576,12.0428126 8.964864,14.1671006 11.575296,14.1671006 Z" id="Shape" fill="#FA759E"></path>
                <path d="M23.16672,5.31974062 C23.16672,8.12601262 25.448832,10.4092766 28.256256,10.4092766 C31.062528,10.4092766 33.345792,8.12601262 33.345792,5.31974062 C33.345792,2.51346862 31.062528,0.230204618 28.256256,0.230204618 C25.448832,0.230204618 23.16672,2.51346862 23.16672,5.31974062 Z" id="Shape" fill="#FFFFFF"></path>
                <path d="M46.982016,33.9699806 C46.457856,33.5241566 45.847296,33.4319966 45.081216,33.5610206 C45.035136,32.8168286 44.803584,32.1210206 44.372736,31.5853406 C43.776,30.8446046 42.878592,30.4402526 41.837184,30.4402526 L41.787648,30.4402526 C41.283072,30.4471646 40.726656,30.5635166 40.128768,30.7328606 L40.128768,20.0768606 C40.128768,16.9376606 37.574784,14.3848286 34.436736,14.3848286 L22.07808,14.3848286 C19.740672,14.3848286 17.731584,15.8017886 16.856064,17.8223966 L5.912064,17.8223966 C2.996352,17.8223966 0.624384,20.1943646 0.624384,23.1100766 C0.572568956,34.7666531 0.572568956,41.5221514 0.624384,43.3765716 C0.648420597,44.2368228 2.548224,45.8666846 3.207168,46.0394846 C6.51456,46.9127006 12.031488,48.0393566 18.499968,48.0393566 C26.977536,48.0370526 37.085184,46.1039966 45.963648,39.1343966 C46.164096,38.9973086 47.918592,37.7531486 48.00384,36.1080926 C48.03264,35.5516766 47.878272,34.7303006 46.982016,33.9699806 Z M41.807232,32.1141086 L41.837184,32.1141086 C42.374016,32.1141086 42.786432,32.2892126 43.064064,32.6336606 C43.347456,32.9873246 43.47072,33.4930526 43.428096,34.0402526 C42.8832,34.2476126 42.276096,34.5010526 41.590656,34.7890526 C39.362688,35.7233246 36.193536,37.0527326 31.762944,38.1390686 C31.856256,37.8648926 31.902336,37.6010846 31.918464,37.3580126 C31.970304,36.5838686 31.894272,35.8995806 31.70304,35.3016926 C34.273152,34.6669406 36.364032,33.8847326 38.058624,33.2315486 C39.66912,32.6129246 40.938624,32.1244766 41.807232,32.1141086 Z M22.07808,16.0575326 L34.436736,16.0575326 C36.652032,16.0575326 38.45376,17.8592606 38.45376,20.0757086 L38.45376,31.2915806 C38.133504,31.4113886 37.80864,31.5346526 37.460736,31.6694366 C36.801792,31.9217246 36.058752,32.1982046 35.27424,32.4769886 L35.27424,20.9166686 C35.27424,20.4558686 34.89984,20.0791646 34.436736,20.0791646 C33.973632,20.0791646 33.599232,20.4547166 33.599232,20.9166686 L33.599232,33.0311006 C32.724864,33.3029726 31.804416,33.5713886 30.789504,33.8052446 C29.639808,32.7027806 28.08,32.7707486 28.043136,32.7684446 C25.861248,32.7949406 24.212736,32.7500126 22.916736,32.6555486 L22.916736,20.9178206 C22.916736,20.4570206 22.542336,20.0803166 22.079232,20.0803166 C21.616128,20.0803166 21.241728,20.4558686 21.241728,20.9178206 L21.241728,32.4781406 C19.605888,32.2350686 18.784512,31.8687326 18.0610554,31.4563166 L18.0610554,20.0757086 C18.059904,17.8592606 19.861632,16.0575326 22.07808,16.0575326 Z M2.299392,23.1089246 C2.299392,21.1159646 3.920256,19.4951006 5.912064,19.4951006 L16.4448,19.4951006 C16.425216,19.6886366 16.386048,19.8775646 16.386048,20.0757086 L16.386048,30.5312606 C14.890752,29.8319966 12.483072,29.1765086 6.75072,28.9046366 L6.75072,23.8807646 C6.75072,23.4176606 6.375168,23.0432606 5.913216,23.0432606 C5.451264,23.0432606 5.075712,23.4165086 5.075712,23.8807646 L5.075712,28.8401246 C4.843008,28.8332126 4.626432,28.8216926 4.384512,28.8170846 C3.625344,28.7928926 2.922624,28.9898846 2.299392,29.3504606 L2.299392,23.1089246 Z M44.975232,37.7831006 C29.867904,49.6383326 11.033856,46.3735646 3.63456,44.4186206 C2.595456,44.1467486 1.875456,43.2032606 1.88004201,42.1261406 L1.924992,32.8375646 C1.928448,32.1982046 2.18304,31.6003166 2.64384,31.1544926 C3.08736,30.7247966 3.666816,30.4886366 4.27968,30.4886366 C4.300416,30.4886366 4.321152,30.4886366 4.340736,30.4909406 C13.537152,30.7247966 15.262848,31.7489246 16.786944,32.6532446 C18.491904,33.6658526 19.979136,34.5517406 28.090368,34.4423006 C28.101888,34.4399966 29.051136,34.4111966 29.672064,35.0471006 C30.122496,35.5102046 30.317184,36.2509406 30.250368,37.2451166 C30.23424,37.4904926 30.183552,38.2266206 28.72512,38.8049246 C28.711296,38.8095326 28.70208,38.8187486 28.69056,38.8233566 C28.683648,38.8256606 28.677888,38.8233566 28.672128,38.8256606 C27.120384,39.4247006 23.705856,39.9235166 16.22592,38.9201246 C15.775488,38.8544606 15.345792,39.1793246 15.284736,39.6378206 C15.222528,40.0940126 15.545088,40.5179486 16.003584,40.5778526 C18.925056,40.9718366 21.453696,41.1676766 23.576832,41.1676766 C25.969536,41.1676766 27.839232,40.9130846 29.184768,40.4165726 C29.187072,40.4165726 29.188224,40.4165726 29.190528,40.4165726 C35.342208,39.2265566 39.492864,37.4870366 42.241536,36.3327326 C43.94304,35.6219486 45.545472,34.9491806 45.897984,35.2487006 C46.30464,35.5931486 46.341504,35.8511966 46.332288,36.0182366 C46.300032,36.6656606 45.432576,37.4639966 44.975232,37.7831006 Z" id="Shape" stroke="#FFFFFF" fill="#FFFFFF"></path>
            </g>
        </g>
    </g>
</svg>