<?xml version="1.0" standalone="no"?>
<!DOCTYPE svg PUBLIC "-//W3C//DTD SVG 20010904//EN"
 "http://www.w3.org/TR/2001/REC-SVG-20010904/DTD/svg10.dtd">
<svg version="1.0" xmlns="http://www.w3.org/2000/svg"
 width="700.000000pt" height="700.000000pt" viewBox="0 0 700.000000 700.000000"
 preserveAspectRatio="xMidYMid meet">
<metadata>
Created by potrace 1.11, written by Peter Selinger 2001-2013
</metadata>
<g transform="translate(0.000000,700.000000) scale(0.100000,-0.100000)"
fill="#000000" stroke="none">
<path d="M4926 6989 c-1021 -108 -1769 -1029 -1666 -2050 76 -742 586 -1372
1294 -1598 382 -122 785 -119 1166 8 699 234 1194 854 1269 1591 81 785 -352
1547 -1069 1883 -301 141 -661 201 -994 166z"/>
<path d="M1745 3739 c-830 -51 -1534 -667 -1701 -1488 -152 -747 163 -1511
796 -1932 858 -571 2017 -338 2591 520 527 789 374 1859 -354 2467 -377 316
-832 464 -1332 433z"/>
</g>
</svg>
