<svg width="28" height="29" viewBox="0 0 28 29" fill="none" xmlns="http://www.w3.org/2000/svg">
<g id="share">
<path id="share_2" d="M22.4444 17.2097C23.9815 17.2097 25.2917 17.7648 26.375 18.875C27.4583 19.9758 28 21.3024 28 22.8548C28 24.4073 27.4583 25.7386 26.375 26.8488C25.2917 27.9496 23.9815 28.5 22.4444 28.5C20.9167 28.5 19.6065 27.9496 18.5139 26.8488C17.4306 25.7386 16.8889 24.4073 16.8889 22.8548C16.8889 21.8011 17.1574 20.832 17.6944 19.9476L14 17.0544L10.3056 19.9476C10.8426 20.832 11.1111 21.8011 11.1111 22.8548C11.1111 24.4073 10.5694 25.7386 9.48611 26.8488C8.40278 27.9496 7.09259 28.5 5.55556 28.5C4.01852 28.5 2.70833 27.9496 1.625 26.8488C0.541667 25.7386 0 24.4073 0 22.8548C0 21.3024 0.541667 19.9758 1.625 18.875C2.70833 17.7648 4.01852 17.2097 5.55556 17.2097C6.75926 17.2097 7.84259 17.5672 8.80556 18.2823L12.8889 15.0786V11.6774C11.6111 11.414 10.5509 10.7648 9.70833 9.72984C8.86574 8.69489 8.44444 7.5 8.44444 6.14516C8.44444 4.58333 8.98611 3.25202 10.0694 2.15121C11.1528 1.0504 12.463 0.5 14 0.5C15.537 0.5 16.8472 1.0504 17.9306 2.15121C19.0139 3.25202 19.5556 4.58333 19.5556 6.14516C19.5556 7.5 19.1343 8.69489 18.2917 9.72984C17.4491 10.7648 16.3889 11.414 15.1111 11.6774V15.0786L19.1944 18.2823C20.1574 17.5672 21.2407 17.2097 22.4444 17.2097ZM11.625 3.73185C10.9676 4.39987 10.6389 5.2043 10.6389 6.14516C10.6389 7.08602 10.9676 7.89046 11.625 8.55847C12.2824 9.22648 13.0741 9.56048 14 9.56048C14.9259 9.56048 15.7176 9.22648 16.375 8.55847C17.0324 7.89046 17.3611 7.08602 17.3611 6.14516C17.3611 5.2043 17.0324 4.39987 16.375 3.73185C15.7176 3.06384 14.9259 2.72984 14 2.72984C13.0741 2.72984 12.2824 3.06384 11.625 3.73185ZM3.18056 25.2681C3.83796 25.9362 4.62963 26.2702 5.55556 26.2702C6.48148 26.2702 7.27315 25.9362 7.93056 25.2681C8.58796 24.6001 8.91667 23.7957 8.91667 22.8548C8.91667 21.914 8.58796 21.1095 7.93056 20.4415C7.27315 19.7735 6.48148 19.4395 5.55556 19.4395C4.62963 19.4395 3.83796 19.7735 3.18056 20.4415C2.52315 21.1095 2.19444 21.914 2.19444 22.8548C2.19444 23.7957 2.52315 24.6001 3.18056 25.2681ZM20.0694 25.2681C20.7269 25.9362 21.5185 26.2702 22.4444 26.2702C23.3704 26.2702 24.162 25.9362 24.8194 25.2681C25.4769 24.6001 25.8056 23.7957 25.8056 22.8548C25.8056 21.914 25.4769 21.1095 24.8194 20.4415C24.162 19.7735 23.3704 19.4395 22.4444 19.4395C21.5185 19.4395 20.7269 19.7735 20.0694 20.4415C19.412 21.1095 19.0833 21.914 19.0833 22.8548C19.0833 23.7957 19.412 24.6001 20.0694 25.2681Z" fill="#164176"/>
</g>
</svg>
