<svg width="32" height="32" viewBox="0 0 32 32" fill="none" xmlns="http://www.w3.org/2000/svg">
<g id="share">
<path id="share_2" d="M25.25 19C26.9792 19 28.4531 19.6146 29.6719 20.8438C30.8906 22.0625 31.5 23.5312 31.5 25.25C31.5 26.9688 30.8906 28.4427 29.6719 29.6719C28.4531 30.8906 26.9792 31.5 25.25 31.5C23.5312 31.5 22.0573 30.8906 20.8281 29.6719C19.6094 28.4427 19 26.9688 19 25.25C19 24.0833 19.3021 23.0104 19.9062 22.0312L15.75 18.8281L11.5938 22.0312C12.1979 23.0104 12.5 24.0833 12.5 25.25C12.5 26.9688 11.8906 28.4427 10.6719 29.6719C9.45312 30.8906 7.97917 31.5 6.25 31.5C4.52083 31.5 3.04688 30.8906 1.82812 29.6719C0.609375 28.4427 0 26.9688 0 25.25C0 23.5312 0.609375 22.0625 1.82812 20.8438C3.04688 19.6146 4.52083 19 6.25 19C7.60417 19 8.82292 19.3958 9.90625 20.1875L14.5 16.6406V12.875C13.0625 12.5833 11.8698 11.8646 10.9219 10.7188C9.97396 9.57292 9.5 8.25 9.5 6.75C9.5 5.02083 10.1094 3.54688 11.3281 2.32812C12.5469 1.10938 14.0208 0.5 15.75 0.5C17.4792 0.5 18.9531 1.10938 20.1719 2.32812C21.3906 3.54688 22 5.02083 22 6.75C22 8.25 21.526 9.57292 20.5781 10.7188C19.6302 11.8646 18.4375 12.5833 17 12.875V16.6406L21.5938 20.1875C22.6771 19.3958 23.8958 19 25.25 19ZM13.0781 4.07812C12.3385 4.81771 11.9688 5.70833 11.9688 6.75C11.9688 7.79167 12.3385 8.68229 13.0781 9.42188C13.8177 10.1615 14.7083 10.5312 15.75 10.5312C16.7917 10.5312 17.6823 10.1615 18.4219 9.42188C19.1615 8.68229 19.5312 7.79167 19.5312 6.75C19.5312 5.70833 19.1615 4.81771 18.4219 4.07812C17.6823 3.33854 16.7917 2.96875 15.75 2.96875C14.7083 2.96875 13.8177 3.33854 13.0781 4.07812ZM3.57812 27.9219C4.31771 28.6615 5.20833 29.0312 6.25 29.0312C7.29167 29.0312 8.18229 28.6615 8.92188 27.9219C9.66146 27.1823 10.0312 26.2917 10.0312 25.25C10.0312 24.2083 9.66146 23.3177 8.92188 22.5781C8.18229 21.8385 7.29167 21.4688 6.25 21.4688C5.20833 21.4688 4.31771 21.8385 3.57812 22.5781C2.83854 23.3177 2.46875 24.2083 2.46875 25.25C2.46875 26.2917 2.83854 27.1823 3.57812 27.9219ZM22.5781 27.9219C23.3177 28.6615 24.2083 29.0312 25.25 29.0312C26.2917 29.0312 27.1823 28.6615 27.9219 27.9219C28.6615 27.1823 29.0312 26.2917 29.0312 25.25C29.0312 24.2083 28.6615 23.3177 27.9219 22.5781C27.1823 21.8385 26.2917 21.4688 25.25 21.4688C24.2083 21.4688 23.3177 21.8385 22.5781 22.5781C21.8385 23.3177 21.4688 24.2083 21.4688 25.25C21.4688 26.2917 21.8385 27.1823 22.5781 27.9219Z" fill="#164176"/>
</g>
</svg>
